<mxfile host="Electron" agent="Mozilla/5.0 (Windows NT 10.0; Win64; x64) AppleWebKit/537.36 (KHTML, like Gecko) draw.io/27.0.9 Chrome/134.0.6998.205 Electron/35.4.0 Safari/537.36" version="27.0.9">
  <diagram name="Page-1" id="_bdIEcuXVylU5VbjDtei">
    <mxGraphModel dx="2076" dy="1836" grid="1" gridSize="10" guides="1" tooltips="1" connect="1" arrows="1" fold="1" page="1" pageScale="1" pageWidth="850" pageHeight="1100" math="0" shadow="0">
      <root>
        <mxCell id="0" />
        <mxCell id="1" parent="0" />
        <mxCell id="9P6WwqejpPspDwU4f0HS-1" value="" style="rounded=0;whiteSpace=wrap;html=1;strokeColor=default;dashed=1;fillColor=none;" parent="1" vertex="1">
          <mxGeometry x="100" y="110" width="180" height="430" as="geometry" />
        </mxCell>
        <mxCell id="9P6WwqejpPspDwU4f0HS-3" value="&lt;font style=&quot;font-size: 15px;&quot;&gt;Sources&lt;/font&gt;" style="rounded=1;whiteSpace=wrap;html=1;" parent="1" vertex="1">
          <mxGeometry x="140" y="90" width="100" height="40" as="geometry" />
        </mxCell>
        <mxCell id="9P6WwqejpPspDwU4f0HS-18" style="edgeStyle=orthogonalEdgeStyle;rounded=0;orthogonalLoop=1;jettySize=auto;html=1;" parent="1" source="9P6WwqejpPspDwU4f0HS-5" target="9P6WwqejpPspDwU4f0HS-10" edge="1">
          <mxGeometry relative="1" as="geometry" />
        </mxCell>
        <mxCell id="9P6WwqejpPspDwU4f0HS-19" style="edgeStyle=orthogonalEdgeStyle;rounded=0;orthogonalLoop=1;jettySize=auto;html=1;" parent="1" source="9P6WwqejpPspDwU4f0HS-5" target="9P6WwqejpPspDwU4f0HS-9" edge="1">
          <mxGeometry relative="1" as="geometry">
            <Array as="points">
              <mxPoint x="290" y="255" />
              <mxPoint x="290" y="215" />
            </Array>
          </mxGeometry>
        </mxCell>
        <mxCell id="9P6WwqejpPspDwU4f0HS-20" style="edgeStyle=orthogonalEdgeStyle;rounded=0;orthogonalLoop=1;jettySize=auto;html=1;entryX=0;entryY=0.5;entryDx=0;entryDy=0;" parent="1" source="9P6WwqejpPspDwU4f0HS-5" target="9P6WwqejpPspDwU4f0HS-11" edge="1">
          <mxGeometry relative="1" as="geometry">
            <Array as="points">
              <mxPoint x="290" y="255" />
              <mxPoint x="290" y="295" />
            </Array>
          </mxGeometry>
        </mxCell>
        <mxCell id="9P6WwqejpPspDwU4f0HS-5" value="&lt;font style=&quot;font-size: 15px;&quot;&gt;&lt;b style=&quot;&quot;&gt;CRM&lt;/b&gt;&lt;/font&gt;" style="image;aspect=fixed;html=1;points=[];align=center;fontSize=12;image=img/lib/azure2/general/Folder_Blank.svg;" parent="1" vertex="1">
          <mxGeometry x="160" y="230" width="61.61" height="50" as="geometry" />
        </mxCell>
        <mxCell id="9P6WwqejpPspDwU4f0HS-22" value="" style="edgeStyle=orthogonalEdgeStyle;rounded=0;orthogonalLoop=1;jettySize=auto;html=1;" parent="1" source="9P6WwqejpPspDwU4f0HS-6" target="9P6WwqejpPspDwU4f0HS-14" edge="1">
          <mxGeometry relative="1" as="geometry">
            <Array as="points">
              <mxPoint x="290" y="425" />
              <mxPoint x="290" y="390" />
            </Array>
          </mxGeometry>
        </mxCell>
        <mxCell id="9P6WwqejpPspDwU4f0HS-24" style="edgeStyle=orthogonalEdgeStyle;rounded=0;orthogonalLoop=1;jettySize=auto;html=1;entryX=0;entryY=0.5;entryDx=0;entryDy=0;" parent="1" source="9P6WwqejpPspDwU4f0HS-6" target="9P6WwqejpPspDwU4f0HS-12" edge="1">
          <mxGeometry relative="1" as="geometry" />
        </mxCell>
        <mxCell id="9P6WwqejpPspDwU4f0HS-25" style="edgeStyle=orthogonalEdgeStyle;rounded=0;orthogonalLoop=1;jettySize=auto;html=1;" parent="1" source="9P6WwqejpPspDwU4f0HS-6" target="9P6WwqejpPspDwU4f0HS-13" edge="1">
          <mxGeometry relative="1" as="geometry">
            <Array as="points">
              <mxPoint x="290" y="425" />
              <mxPoint x="290" y="465" />
            </Array>
          </mxGeometry>
        </mxCell>
        <mxCell id="9P6WwqejpPspDwU4f0HS-6" value="&lt;font style=&quot;font-size: 15px;&quot;&gt;&lt;b&gt;ERP&lt;/b&gt;&lt;/font&gt;" style="image;aspect=fixed;html=1;points=[];align=center;fontSize=12;image=img/lib/azure2/general/Folder_Blank.svg;" parent="1" vertex="1">
          <mxGeometry x="159.19" y="400" width="61.61" height="50" as="geometry" />
        </mxCell>
        <mxCell id="9P6WwqejpPspDwU4f0HS-7" value="" style="rounded=1;whiteSpace=wrap;html=1;fillColor=none;strokeColor=#d79b00;" parent="1" vertex="1">
          <mxGeometry x="330" y="150" width="200" height="390" as="geometry" />
        </mxCell>
        <mxCell id="9P6WwqejpPspDwU4f0HS-26" value="" style="rounded=1;whiteSpace=wrap;html=1;fillColor=none;strokeColor=#666666;fontColor=#333333;" parent="1" vertex="1">
          <mxGeometry x="600" y="150" width="200" height="390" as="geometry" />
        </mxCell>
        <mxCell id="9P6WwqejpPspDwU4f0HS-41" value="" style="rounded=1;whiteSpace=wrap;html=1;fillColor=none;strokeColor=#d6b656;" parent="1" vertex="1">
          <mxGeometry x="870" y="150" width="200" height="390" as="geometry" />
        </mxCell>
        <mxCell id="9P6WwqejpPspDwU4f0HS-8" value="&lt;font style=&quot;font-size: 15px;&quot;&gt;&lt;b style=&quot;&quot;&gt;BRONZE LAYER&lt;/b&gt;&lt;/font&gt;" style="rounded=1;whiteSpace=wrap;html=1;fillColor=#ffe6cc;strokeColor=#d79b00;" parent="1" vertex="1">
          <mxGeometry x="330" y="100" width="200" height="40" as="geometry" />
        </mxCell>
        <mxCell id="9P6WwqejpPspDwU4f0HS-27" value="&lt;font style=&quot;font-size: 15px;&quot;&gt;&lt;b style=&quot;&quot;&gt;SILVER LAYER&lt;/b&gt;&lt;/font&gt;" style="rounded=1;whiteSpace=wrap;html=1;fillColor=#f5f5f5;strokeColor=#666666;fontColor=#333333;" parent="1" vertex="1">
          <mxGeometry x="600" y="100" width="200" height="40" as="geometry" />
        </mxCell>
        <mxCell id="9P6WwqejpPspDwU4f0HS-42" value="&lt;font style=&quot;font-size: 15px;&quot;&gt;&lt;b style=&quot;&quot;&gt;GOLD LAYER&lt;/b&gt;&lt;/font&gt;" style="rounded=1;whiteSpace=wrap;html=1;fillColor=#fff2cc;strokeColor=#d6b656;" parent="1" vertex="1">
          <mxGeometry x="870" y="100" width="200" height="40" as="geometry" />
        </mxCell>
        <mxCell id="9P6WwqejpPspDwU4f0HS-34" style="edgeStyle=orthogonalEdgeStyle;rounded=0;orthogonalLoop=1;jettySize=auto;html=1;entryX=0;entryY=0.5;entryDx=0;entryDy=0;" parent="1" source="9P6WwqejpPspDwU4f0HS-9" target="9P6WwqejpPspDwU4f0HS-28" edge="1">
          <mxGeometry relative="1" as="geometry" />
        </mxCell>
        <mxCell id="9P6WwqejpPspDwU4f0HS-9" value="&lt;span style=&quot;font-size: 16px;&quot;&gt;crm_sales_details&lt;/span&gt;" style="rounded=1;whiteSpace=wrap;html=1;fillColor=#ffe6cc;strokeColor=#d79b00;" parent="1" vertex="1">
          <mxGeometry x="345" y="200" width="170" height="30" as="geometry" />
        </mxCell>
        <mxCell id="9P6WwqejpPspDwU4f0HS-28" value="&lt;span style=&quot;color: rgb(0, 0, 0); font-size: 16px;&quot;&gt;crm_sales_details&lt;/span&gt;" style="rounded=1;whiteSpace=wrap;html=1;fillColor=#f5f5f5;strokeColor=#666666;fontColor=#333333;" parent="1" vertex="1">
          <mxGeometry x="615" y="200" width="170" height="30" as="geometry" />
        </mxCell>
        <mxCell id="9P6WwqejpPspDwU4f0HS-43" value="&lt;font style=&quot;font-size: 16px;&quot;&gt;dim_customers&lt;/font&gt;" style="rounded=1;whiteSpace=wrap;html=1;fillColor=#fff2cc;strokeColor=#d6b656;" parent="1" vertex="1">
          <mxGeometry x="885" y="310" width="170" height="30" as="geometry" />
        </mxCell>
        <mxCell id="9P6WwqejpPspDwU4f0HS-35" style="edgeStyle=orthogonalEdgeStyle;rounded=0;orthogonalLoop=1;jettySize=auto;html=1;entryX=0;entryY=0.5;entryDx=0;entryDy=0;" parent="1" source="9P6WwqejpPspDwU4f0HS-10" target="9P6WwqejpPspDwU4f0HS-29" edge="1">
          <mxGeometry relative="1" as="geometry" />
        </mxCell>
        <mxCell id="9P6WwqejpPspDwU4f0HS-10" value="&lt;span style=&quot;color: rgb(51, 51, 51); font-size: 16px;&quot;&gt;crm_cust_info&lt;/span&gt;" style="rounded=1;whiteSpace=wrap;html=1;fillColor=#ffe6cc;strokeColor=#d79b00;" parent="1" vertex="1">
          <mxGeometry x="345" y="240" width="170" height="30" as="geometry" />
        </mxCell>
        <mxCell id="9P6WwqejpPspDwU4f0HS-29" value="&lt;span style=&quot;font-size: 16px;&quot;&gt;crm_cust_info&lt;/span&gt;" style="rounded=1;whiteSpace=wrap;html=1;fillColor=#f5f5f5;strokeColor=#666666;fontColor=#333333;" parent="1" vertex="1">
          <mxGeometry x="615" y="240" width="170" height="30" as="geometry" />
        </mxCell>
        <mxCell id="9P6WwqejpPspDwU4f0HS-44" value="&lt;font style=&quot;font-size: 16px;&quot;&gt;dim_products&lt;/font&gt;" style="rounded=1;whiteSpace=wrap;html=1;fillColor=#fff2cc;strokeColor=#d6b656;" parent="1" vertex="1">
          <mxGeometry x="885" y="410" width="170" height="30" as="geometry" />
        </mxCell>
        <mxCell id="9P6WwqejpPspDwU4f0HS-36" style="edgeStyle=orthogonalEdgeStyle;rounded=0;orthogonalLoop=1;jettySize=auto;html=1;entryX=0;entryY=0.5;entryDx=0;entryDy=0;" parent="1" source="9P6WwqejpPspDwU4f0HS-11" target="9P6WwqejpPspDwU4f0HS-30" edge="1">
          <mxGeometry relative="1" as="geometry" />
        </mxCell>
        <mxCell id="9P6WwqejpPspDwU4f0HS-11" value="&lt;span style=&quot;color: rgb(51, 51, 51); font-size: 16px;&quot;&gt;crm_prd_info&lt;/span&gt;" style="rounded=1;whiteSpace=wrap;html=1;fillColor=#ffe6cc;strokeColor=#d79b00;" parent="1" vertex="1">
          <mxGeometry x="345" y="280" width="170" height="30" as="geometry" />
        </mxCell>
        <mxCell id="9P6WwqejpPspDwU4f0HS-30" value="&lt;span style=&quot;font-size: 16px;&quot;&gt;crm_prd_info&lt;/span&gt;" style="rounded=1;whiteSpace=wrap;html=1;fillColor=#f5f5f5;strokeColor=#666666;fontColor=#333333;" parent="1" vertex="1">
          <mxGeometry x="615" y="280" width="170" height="30" as="geometry" />
        </mxCell>
        <mxCell id="9P6WwqejpPspDwU4f0HS-45" value="&lt;font style=&quot;font-size: 16px;&quot;&gt;fact_sales&lt;/font&gt;" style="rounded=1;whiteSpace=wrap;html=1;fillColor=#fff2cc;strokeColor=#d6b656;" parent="1" vertex="1">
          <mxGeometry x="885" y="210" width="170" height="30" as="geometry" />
        </mxCell>
        <mxCell id="9P6WwqejpPspDwU4f0HS-39" style="edgeStyle=orthogonalEdgeStyle;rounded=0;orthogonalLoop=1;jettySize=auto;html=1;entryX=0;entryY=0.5;entryDx=0;entryDy=0;" parent="1" source="9P6WwqejpPspDwU4f0HS-12" target="9P6WwqejpPspDwU4f0HS-31" edge="1">
          <mxGeometry relative="1" as="geometry" />
        </mxCell>
        <mxCell id="9P6WwqejpPspDwU4f0HS-12" value="&lt;font style=&quot;font-size: 16px;&quot;&gt;erp_loc_a101&lt;/font&gt;" style="rounded=1;whiteSpace=wrap;html=1;fillColor=#ffe6cc;strokeColor=#d79b00;" parent="1" vertex="1">
          <mxGeometry x="345" y="410" width="170" height="30" as="geometry" />
        </mxCell>
        <mxCell id="9P6WwqejpPspDwU4f0HS-31" value="&lt;font style=&quot;font-size: 16px;&quot;&gt;erp_loc_a101&lt;/font&gt;" style="rounded=1;whiteSpace=wrap;html=1;fillColor=#f5f5f5;strokeColor=#666666;fontColor=#333333;" parent="1" vertex="1">
          <mxGeometry x="615" y="410" width="170" height="30" as="geometry" />
        </mxCell>
        <mxCell id="9P6WwqejpPspDwU4f0HS-37" style="edgeStyle=orthogonalEdgeStyle;rounded=0;orthogonalLoop=1;jettySize=auto;html=1;" parent="1" source="9P6WwqejpPspDwU4f0HS-14" target="9P6WwqejpPspDwU4f0HS-32" edge="1">
          <mxGeometry relative="1" as="geometry" />
        </mxCell>
        <mxCell id="9P6WwqejpPspDwU4f0HS-14" value="&lt;font style=&quot;font-size: 16px;&quot;&gt;erp_cust_az12&lt;/font&gt;" style="rounded=1;whiteSpace=wrap;html=1;fillColor=#ffe6cc;strokeColor=#d79b00;" parent="1" vertex="1">
          <mxGeometry x="345" y="370" width="170" height="30" as="geometry" />
        </mxCell>
        <mxCell id="9P6WwqejpPspDwU4f0HS-32" value="&lt;font style=&quot;font-size: 16px;&quot;&gt;erp_cust_az12&lt;/font&gt;" style="rounded=1;whiteSpace=wrap;html=1;fillColor=#f5f5f5;strokeColor=#666666;fontColor=#333333;" parent="1" vertex="1">
          <mxGeometry x="615" y="370" width="170" height="30" as="geometry" />
        </mxCell>
        <mxCell id="9P6WwqejpPspDwU4f0HS-40" style="edgeStyle=orthogonalEdgeStyle;rounded=0;orthogonalLoop=1;jettySize=auto;html=1;entryX=0;entryY=0.5;entryDx=0;entryDy=0;" parent="1" source="9P6WwqejpPspDwU4f0HS-13" target="9P6WwqejpPspDwU4f0HS-33" edge="1">
          <mxGeometry relative="1" as="geometry" />
        </mxCell>
        <mxCell id="9P6WwqejpPspDwU4f0HS-13" value="&lt;font style=&quot;font-size: 16px;&quot;&gt;erp_px_cat_g1v2&lt;/font&gt;" style="rounded=1;whiteSpace=wrap;html=1;fillColor=#ffe6cc;strokeColor=#d79b00;" parent="1" vertex="1">
          <mxGeometry x="345" y="450" width="170" height="30" as="geometry" />
        </mxCell>
        <mxCell id="9P6WwqejpPspDwU4f0HS-33" value="&lt;font style=&quot;font-size: 16px;&quot;&gt;erp_px_cat_g1v2&lt;/font&gt;" style="rounded=1;whiteSpace=wrap;html=1;fillColor=#f5f5f5;strokeColor=#666666;fontColor=#333333;" parent="1" vertex="1">
          <mxGeometry x="615" y="450" width="170" height="30" as="geometry" />
        </mxCell>
        <mxCell id="9P6WwqejpPspDwU4f0HS-53" value="&lt;div&gt;&lt;br/&gt;&lt;/div&gt;" style="endArrow=classic;html=1;rounded=0;exitX=1;exitY=0.5;exitDx=0;exitDy=0;entryX=0.029;entryY=0.5;entryDx=0;entryDy=0;entryPerimeter=0;" parent="1" source="9P6WwqejpPspDwU4f0HS-28" target="9P6WwqejpPspDwU4f0HS-45" edge="1">
          <mxGeometry width="50" height="50" relative="1" as="geometry">
            <mxPoint x="830" y="250" as="sourcePoint" />
            <mxPoint x="880" y="225" as="targetPoint" />
          </mxGeometry>
        </mxCell>
        <mxCell id="9P6WwqejpPspDwU4f0HS-56" value="&lt;div&gt;&lt;br/&gt;&lt;/div&gt;" style="endArrow=classic;html=1;rounded=0;exitX=1;exitY=0.5;exitDx=0;exitDy=0;entryX=0;entryY=0.5;entryDx=0;entryDy=0;jumpStyle=gap;" parent="1" target="9P6WwqejpPspDwU4f0HS-43" edge="1">
          <mxGeometry width="50" height="50" relative="1" as="geometry">
            <mxPoint x="785" y="260" as="sourcePoint" />
            <mxPoint x="890" y="270" as="targetPoint" />
          </mxGeometry>
        </mxCell>
        <mxCell id="9P6WwqejpPspDwU4f0HS-58" value="&lt;div&gt;&lt;br/&gt;&lt;/div&gt;" style="endArrow=classic;html=1;rounded=0;entryX=0.05;entryY=0.718;entryDx=0;entryDy=0;entryPerimeter=0;exitX=1;exitY=0.5;exitDx=0;exitDy=0;jumpStyle=gap;" parent="1" source="9P6WwqejpPspDwU4f0HS-30" edge="1">
          <mxGeometry width="50" height="50" relative="1" as="geometry">
            <mxPoint x="790" y="300" as="sourcePoint" />
            <mxPoint x="885" y="430.02" as="targetPoint" />
          </mxGeometry>
        </mxCell>
        <mxCell id="9P6WwqejpPspDwU4f0HS-57" value="&lt;div&gt;&lt;br/&gt;&lt;/div&gt;" style="endArrow=classic;html=1;rounded=0;entryX=0;entryY=0.5;entryDx=0;entryDy=0;exitX=1;exitY=0.5;exitDx=0;exitDy=0;jumpStyle=gap;" parent="1" source="9P6WwqejpPspDwU4f0HS-32" target="9P6WwqejpPspDwU4f0HS-43" edge="1">
          <mxGeometry width="50" height="50" relative="1" as="geometry">
            <mxPoint x="790" y="380" as="sourcePoint" />
            <mxPoint x="880" y="450" as="targetPoint" />
          </mxGeometry>
        </mxCell>
        <mxCell id="9P6WwqejpPspDwU4f0HS-59" value="&lt;div&gt;&lt;br/&gt;&lt;/div&gt;" style="endArrow=classic;html=1;rounded=0;exitX=1;exitY=0.5;exitDx=0;exitDy=0;jumpStyle=gap;" parent="1" edge="1">
          <mxGeometry width="50" height="50" relative="1" as="geometry">
            <mxPoint x="785" y="430" as="sourcePoint" />
            <mxPoint x="880" y="330" as="targetPoint" />
          </mxGeometry>
        </mxCell>
        <mxCell id="9P6WwqejpPspDwU4f0HS-60" value="&lt;div&gt;&lt;br/&gt;&lt;/div&gt;" style="endArrow=classic;html=1;rounded=0;exitX=1;exitY=0.5;exitDx=0;exitDy=0;entryX=0;entryY=0.75;entryDx=0;entryDy=0;jumpStyle=gap;" parent="1" target="9P6WwqejpPspDwU4f0HS-44" edge="1">
          <mxGeometry width="50" height="50" relative="1" as="geometry">
            <mxPoint x="785" y="470" as="sourcePoint" />
            <mxPoint x="880" y="370" as="targetPoint" />
          </mxGeometry>
        </mxCell>
        <mxCell id="6hPa_TyzFXvLe3OvkUca-1" value="&lt;b&gt;&lt;font style=&quot;font-size: 40px;&quot;&gt;Data Flow Diagram&lt;/font&gt;&lt;/b&gt;" style="text;html=1;align=center;verticalAlign=middle;whiteSpace=wrap;rounded=0;" vertex="1" parent="1">
          <mxGeometry x="-30" y="-30" width="400" height="40" as="geometry" />
        </mxCell>
      </root>
    </mxGraphModel>
  </diagram>
</mxfile>
